<?xml version="1.0" encoding="UTF-8"?>
<svg version="1.1" xmlns="http://www.w3.org/2000/svg" width="974" height="974">
<path d="M0 0 C321.42 0 642.84 0 974 0 C974 321.09 974 642.18 974 973 C652.58 973 331.16 973 0 973 C0 651.91 0 330.82 0 0 Z M70 92 C68.97777344 92.70382813 67.95554687 93.40765625 66.90234375 94.1328125 C52.85076504 104.12736787 41.94981541 117.99762545 38.39550781 135.22070312 C36.19815692 150.66184053 35.88436076 169.54014113 42 184 C42.4026709 184.97380615 42.4026709 184.97380615 42.81347656 185.96728516 C52.40915776 208.63880879 71.39641005 221.2304843 93.0625 231.375 C94.06547119 231.85122803 95.06844238 232.32745605 96.10180664 232.81811523 C100.62214041 234.96061577 105.15170232 237.07825072 109.7109375 239.13671875 C126.86171384 246.91396683 145.57043602 256.14496975 153.87890625 273.9453125 C156.26539667 280.44787525 157.36716264 286.44868949 157.3125 293.375 C157.30512817 294.48862915 157.30512817 294.48862915 157.29760742 295.62475586 C157.07105357 306.27743395 153.71714453 314.47420212 146.8125 322.5625 C131.87830561 335.50546847 117.24549414 338.09202621 98 337 C83.47202398 335.50126811 68.26511715 330.2438833 56.125 322.0625 C54.08613815 320.75798798 54.08613815 320.75798798 52.05078125 321.46875 C48.96977273 323.76923636 48.22927068 326.91498299 47.0625 330.4375 C46.55416784 331.89181316 46.04242645 333.344939 45.52734375 334.796875 C45.27452637 335.51166016 45.02170898 336.22644531 44.76123047 336.96289062 C43.38430888 340.64763524 41.64252055 344.15408633 39.8828125 347.66796875 C38.90079879 350.26204921 38.83387739 352.24920508 39 355 C68.64441862 372.06066541 102.49731128 376.73437377 135.84765625 368.1640625 C149.78986857 364.37126734 162.45577928 358.01700969 173 348 C174.27538735 345.88139199 174.27538735 345.88139199 175 344 C175.66 344 176.32 344 177 344 C185.83694638 334.33515234 193.49141283 321.16187643 195 308 C195.11988281 306.95585937 195.23976562 305.91171875 195.36328125 304.8359375 C197.36303171 283.10370965 193.4697962 258.41969586 179.5546875 240.92578125 C166.6734518 225.96133316 148.96800004 216.26910849 130.96875 208.70703125 C124.82659045 206.10993963 118.90447034 203.06880359 112.97900391 200.01611328 C110.99562394 198.99775313 109.00400996 197.99688396 107.01171875 196.99609375 C95.8777109 191.32928298 85.9835873 185.35011716 80 174 C79.5875 173.24847656 79.175 172.49695313 78.75 171.72265625 C74.0578246 161.40964574 74.06829517 146.55189769 77.5 135.8125 C81.81337668 126.31100591 88.44366567 119.2209465 98 115 C111.73877296 109.85285287 126.12695613 111.24573842 140 115 C141.61841797 115.43505859 141.61841797 115.43505859 143.26953125 115.87890625 C150.45190342 117.95458575 157.19605473 120.67814031 164.00390625 123.73046875 C166.38530967 124.739538 168.50281129 125.42051769 171 126 C172.48002207 121.80723826 173.94016643 117.60823536 175.38232422 113.40234375 C175.87561773 111.97273311 176.37428283 110.54496418 176.87841797 109.11914062 C177.6024539 107.06841954 178.30686862 105.01183557 179.0078125 102.953125 C179.65194092 101.09929199 179.65194092 101.09929199 180.30908203 99.20800781 C181.25904222 96.11531039 181.25904222 96.11531039 180.22021484 93.6472168 C175.94869958 87.88092758 167.83412286 86.17000475 161.25 84.3125 C160.53650391 84.11019775 159.82300781 83.90789551 159.08789062 83.69946289 C147.05125765 80.48835669 135.0275207 79.55710745 122.625 79.5625 C121.88554138 79.56176483 121.14608276 79.56102966 120.38421631 79.56027222 C102.6175493 79.60642127 84.72241512 81.10585033 70 92 Z M242 84 C242 177.39 242 270.78 242 367 C254.21 367 266.42 367 279 367 C278.94457031 361.6271875 278.88914062 356.254375 278.83203125 350.71875 C278.82141039 347.2823297 278.81407611 343.84651194 278.81835938 340.41015625 C278.82482871 334.97432861 278.82018189 329.54034729 278.74291992 324.10498047 C278.6812796 319.71448568 278.67484802 315.32684571 278.70416832 310.93605042 C278.70604863 309.27453187 278.68916978 307.61286568 278.65177345 305.95176697 C278.38143799 293.10888765 281.63227477 285.53215346 289.72440338 275.5824585 C291.35010196 273.56567632 292.82010418 271.45701264 294.27734375 269.31640625 C295.16282128 268.06422552 296.04950407 266.81289605 296.9375 265.5625 C300.0757094 261.141329 303.20347119 256.7147433 306.28515625 252.25390625 C306.82342041 251.47909912 307.36168457 250.70429199 307.91625977 249.90600586 C308.94658485 248.42206455 309.97208438 246.93475718 310.99194336 245.44360352 C313.35981537 242.04568879 315.41065214 239.21794608 319 237 C319.25507324 237.69802734 319.51014648 238.39605469 319.77294922 239.11523438 C321.14131568 242.33222963 322.80865311 245.17364327 324.6328125 248.15625 C324.98834198 248.73983276 325.34387146 249.32341553 325.71017456 249.92468262 C326.84489922 251.78531759 327.98486198 253.64267839 329.125 255.5 C329.86753149 256.71593584 330.60972175 257.93208012 331.3515625 259.1484375 C333.20060878 262.17785548 335.05537294 265.20372093 336.91256714 268.22814941 C337.97192199 269.95425001 339.02908201 271.68169703 340.08618164 273.40917969 C344.95103025 281.34492354 349.93289885 289.19914358 354.97460938 297.0234375 C358.09218027 301.8922579 361.05334866 306.7935937 363.82202148 311.86865234 C365.75773816 315.37099567 367.844032 318.77783392 369.9375 322.1875 C370.39914551 322.94216553 370.86079102 323.69683105 371.33642578 324.47436523 C375.84362748 331.80916312 380.47418376 339.06505139 385.14038086 346.29956055 C388.23050697 351.11428404 391.15927208 355.95538664 393.84619141 361.00756836 C394.22694824 361.6650708 394.60770508 362.32257324 395 363 C395.3508667 363.73645752 395.7017334 364.47291504 396.06323242 365.23168945 C399.30145603 368.18825741 403.04546127 367.48938952 407.26171875 367.390625 C408.16751175 367.38496521 409.07330475 367.37930542 410.00654602 367.37347412 C412.90073411 367.35107616 415.7936859 367.30087392 418.6875 367.25 C420.64907067 367.2299394 422.61066073 367.21168786 424.57226562 367.1953125 C429.38198706 367.15120018 434.1907839 367.08214941 439 367 C435.05018025 359.65388347 430.9522585 352.41746698 426.6875 345.25 C426.11918457 344.2919043 425.55086914 343.33380859 424.96533203 342.34667969 C423.31274922 339.56293969 421.65709702 336.78105465 420 334 C419.57251465 333.28199219 419.1450293 332.56398438 418.70458984 331.82421875 C413.88848328 323.742715 408.99559412 315.70932983 404.08325195 307.68603516 C400.09522883 301.16802074 396.15662552 294.62150663 392.23486328 288.06347656 C389.30895472 283.17423592 386.37506712 278.28976788 383.44165039 273.4050293 C381.17325167 269.62676938 378.90676141 265.8475407 376.65625 262.05859375 C372.48557912 255.04865488 368.19458108 248.13008223 363.8125 241.25 C360.13773144 235.47723741 356.60658095 229.70395122 353.453125 223.625 C352.30255493 221.54655084 351.10632953 219.60136792 349.796875 217.625 C349.41692383 217.04347168 349.03697266 216.46194336 348.64550781 215.86279297 C347.55889042 214.21433973 346.45187039 212.57938858 345.34375 210.9453125 C344 208 344 208 344.5859375 205.421875 C346.03918881 202.93288105 347.50731924 200.51162319 349.125 198.125 C349.83269531 197.08085937 350.54039062 196.03671875 351.26953125 194.9609375 C356.15436125 187.85470426 361.09078287 180.78400473 366.0234375 173.7109375 C369.79603259 168.29870765 373.54110938 162.86818501 377.27319336 157.42797852 C379.96316237 153.50703255 382.66433421 149.59419193 385.375 145.6875 C388.45119984 141.25077839 391.50515371 136.79967651 394.5480957 132.34008789 C399.71091206 124.77385174 404.91924183 117.24324052 410.1875 109.75 C414.4763196 103.643501 418.72574922 97.5148716 422.875 91.3125 C423.2980542 90.6824707 423.7211084 90.05244141 424.15698242 89.40332031 C426.13745807 86.90222437 426.13745807 86.90222437 427 84 C421.32622892 83.70160195 415.65708517 83.48486774 409.97729492 83.34082031 C408.04940206 83.28075028 406.12204974 83.19905661 404.19604492 83.09472656 C392.95809574 82.1824578 392.95809574 82.1824578 382.9609375 86.29833984 C380.59856911 89.4114006 378.8032152 92.5361575 377 96 C375.64361906 98.03772503 374.26613284 100.06157048 372.8671875 102.0703125 C371.53283465 104.0861477 370.20209257 106.10437772 368.875 108.125 C364.01716721 115.49192701 359.08767525 122.7898494 354 130 C352.34641751 132.36968644 350.70207549 134.74560408 349.0625 137.125 C348.61285889 137.77750732 348.16321777 138.43001465 347.69995117 139.10229492 C342.65966767 146.44819537 337.7401689 153.87493003 332.83422852 161.31103516 C328.95938573 167.15865819 324.94782646 172.87316019 320.79711914 178.52807617 C318.5413127 181.63092092 316.41862773 184.79354343 314.3125 188 C309.98821918 194.54756582 305.57244617 201.02815996 301.12084961 207.48974609 C298.08493961 211.90943092 295.09835457 216.35583527 292.1640625 220.84375 C291.53145508 221.80780762 290.89884766 222.77186523 290.24707031 223.76513672 C289.01816352 225.64247295 287.79592276 227.52419316 286.58105469 229.41064453 C286.02579102 230.25739746 285.47052734 231.10415039 284.8984375 231.9765625 C284.41036621 232.73018066 283.92229492 233.48379883 283.41943359 234.26025391 C282 236 282 236 279 237 C279 186.51 279 136.02 279 84 C266.79 84 254.58 84 242 84 Z M477 84 C477 177.39 477 270.78 477 367 C489.54 367 502.08 367 515 367 C515 273.61 515 180.22 515 84 C502.46 84 489.92 84 477 84 Z M581 84 C581 177.39 581 270.78 581 367 C635.78 367 690.56 367 747 367 C747 355.78 747 344.56 747 333 C704.76 332.67 662.52 332.34 619 332 C618.67 250.16 618.34 168.32 618 84 C605.79 84 593.58 84 581 84 Z M782 84 C782 177.39 782 270.78 782 367 C836.78 367 891.56 367 948 367 C948 355.78 948 344.56 948 333 C905.76 332.67 863.52 332.34 820 332 C819.67 250.16 819.34 168.32 819 84 C806.79 84 794.58 84 782 84 Z M167 540 C165.98679688 540.70511719 164.97359375 541.41023437 163.9296875 542.13671875 C148.53722781 553.27450592 136.95712544 567.41644221 133.34130859 586.48242188 C131.5188739 599.92515905 131.51618325 615.08876863 136 628 C136.35191406 629.07894531 136.70382813 630.15789062 137.06640625 631.26953125 C145.05850941 653.92701183 161.44222428 666.92490044 182.37109375 677.18359375 C185.86983863 678.85160468 189.39786093 680.45190793 192.9296875 682.04833984 C199.037673 684.85599638 205.01391078 687.94352762 211 691 C211.65274902 691.33 212.30549805 691.66 212.97802734 692 C223.52836121 697.35226251 234.00720986 703.06688161 242 712 C242.825 712.845625 243.65 713.69125 244.5 714.5625 C252.64339397 724.76751269 253.72326115 737.39458436 252.77734375 749.95703125 C250.90697899 761.48792076 244.53239733 770.80175389 235.3125 777.6875 C221.12884413 787.19311275 202.58194238 788.07459043 186.125 785 C179.9751241 783.47703545 174.05625504 781.33312829 168.125 779.125 C166.80459717 778.63386719 166.80459717 778.63386719 165.45751953 778.1328125 C160.45936306 776.19156 156.13297598 774.00368443 151.78466797 770.85107422 C150.02061914 769.85276211 150.02061914 769.85276211 147.9465332 769.99951172 C144.93183262 771.54902169 144.46758263 773.7257439 143.23828125 776.828125 C142.75939453 778.02050781 142.28050781 779.21289062 141.78710938 780.44140625 C141.54500732 781.0667627 141.30290527 781.69211914 141.0534668 782.33642578 C140.3184574 784.23461479 139.56290953 786.12348606 138.80273438 788.01171875 C135.85913867 795.34496238 135.85913867 795.34496238 134 803 C137.71845262 806.2113909 141.55479805 808.46999378 146 810.5 C146.65645508 810.80188232 147.31291016 811.10376465 147.98925781 811.41479492 C175.20789858 823.63038972 210.15828375 825.1165596 238.38476562 815.15869141 C252.16473309 809.83153007 264.38187458 802.44675668 274 791 C274 790.34 274 789.68 274 789 C274.66 789 275.32 789 276 789 C280.34117082 783.18325881 284.16278395 776.69055134 287 770 C287.28746094 769.33613281 287.57492187 768.67226563 287.87109375 767.98828125 C293.81292072 751.69800923 291.92891738 730.20132934 287 714 C286.72285156 713.08605469 286.44570313 712.17210937 286.16015625 711.23046875 C283.34852381 702.79557144 278.91509406 695.37264109 274 688 C273.34 688 272.68 688 272 688 C272 687.34 272 686.68 272 686 C259.5628126 672.01313111 239.57377966 663.35032771 222.77124023 655.99731445 C202.37005073 647.05011328 182.4055923 638.2754747 173.02734375 616.76953125 C169.22323295 606.2064887 169.76864293 594.04160463 173.7109375 583.6328125 C175.370844 580.24257922 177.38397366 577.39108041 179.828125 574.5234375 C181.20323692 573.05612832 181.20323692 573.05612832 181 571 C181.5775 570.72027344 182.155 570.44054687 182.75 570.15234375 C184.97725995 569.04714542 184.97725995 569.04714542 186.9375 567.81640625 C200.92573586 559.31219468 217.39953131 559.28375932 233 563 C242.16324149 565.42835385 250.73102061 568.52133825 259.21606445 572.7644043 C262.03392702 574.16382495 263.80291949 575 267 575 C268.29147472 571.24960933 269.57287073 567.49593907 270.84521484 563.73901367 C271.49181419 561.83658434 272.14624942 559.93682413 272.80078125 558.03710938 C273.20683594 556.83505859 273.61289062 555.63300781 274.03125 554.39453125 C274.59682617 552.73707886 274.59682617 552.73707886 275.17382812 551.04614258 C275.95737838 548.15714833 276.31519011 545.96793163 276 543 C269.0113737 535.28841235 256.80495513 532.77804742 247 531 C246.09854248 530.83153564 245.19708496 530.66307129 244.26831055 530.48950195 C235.35513757 528.95212963 226.5798294 528.55972408 217.5625 528.5625 C216.82176239 528.5614325 216.08102478 528.56036499 215.31784058 528.55926514 C198.55718272 528.59397703 181.09568299 530.02493999 167 540 Z M337.2890625 558.0625 C323.4729484 575.79239386 321.86756113 596.85247598 324.28125 618.52539062 C326.61788941 633.54095409 334.07582331 647.56637355 345 658 C345.67417969 658.68191406 346.34835937 659.36382813 347.04296875 660.06640625 C356.91671846 669.53260907 369.43378507 675.40385902 381.73828125 681.03515625 C388.58543729 684.16934091 395.29429748 687.57609604 402 691 C402.65274902 691.33 403.30549805 691.66 403.97802734 692 C414.57509493 697.37597087 424.87935606 703.1411157 433 712 C433.680625 712.598125 434.36125 713.19625 435.0625 713.8125 C443.17438149 722.97107588 444.03993024 735.3089968 444 747 C443.27677927 757.21884111 438.50471215 767.02193432 431 774 C417.06232938 785.58200798 401.45633674 786.98150998 384 786 C369.33995713 784.21661334 355.66503311 778.19934476 342.79296875 771.22265625 C339.99925669 769.6279545 339.99925669 769.6279545 337 771 C335.91819133 773.21210176 335.03065235 775.32278768 334.1875 777.625 C333.66849553 778.98717999 333.1489477 780.34915306 332.62890625 781.7109375 C332.36352051 782.41573242 332.09813477 783.12052734 331.82470703 783.84667969 C331.00515787 785.98653275 330.1493145 788.10757982 329.27734375 790.2265625 C329.00059814 790.90122559 328.72385254 791.57588867 328.4387207 792.27099609 C327.90487171 793.5693399 327.36833915 794.86658421 326.82885742 796.16259766 C325.69392945 798.95667678 325 800.94949986 325 804 C355.46519457 821.30634196 390.52089264 825.97922872 424.64746094 816.71142578 C439.77149299 812.13780297 455.11613372 803.65134884 465 791 C465 790.34 465 789.68 465 789 C465.66 789 466.32 789 467 789 C475.72263617 777.64079874 481.10318881 764.71686119 481.6875 750.4375 C481.72512451 749.55489502 481.76274902 748.67229004 481.80151367 747.76293945 C482.56350433 726.65560618 478.30407792 705.0238579 465 688 C464.34 688 463.68 688 463 688 C463 687.34 463 686.68 463 686 C449.31050757 672.78544915 431.97058507 664.67838734 414.97119141 656.69482422 C371.81566615 636.40744067 371.81566615 636.40744067 364 617 C362.21161598 611.74115049 361.64491157 607.11582191 361.6875 601.625 C361.69487183 600.49964844 361.69487183 600.49964844 361.70239258 599.3515625 C361.88551632 590.69685282 364.47761258 584.46352241 368.81640625 577.04296875 C370.04069837 575.02801873 370.04069837 575.02801873 370.90234375 572.86328125 C372.2833371 570.51903276 373.53373145 570.06487483 376 569 C377.14911762 568.19215165 378.2948192 567.3794277 379.4375 566.5625 C392.36608729 558.50002306 409.72192504 559.76338974 424 563 C432.4658359 564.977349 440.18548665 567.74861096 447.9387207 571.62573242 C451.28332324 573.28681941 454.29339025 574.47448822 458 575 C458.16604736 574.43079834 458.33209473 573.86159668 458.50317383 573.27514648 C459.26846591 570.66126125 460.0404315 568.04939132 460.8125 565.4375 C461.07353516 564.54224609 461.33457031 563.64699219 461.60351562 562.72460938 C463.11270488 557.63808262 464.85753688 552.8503857 467 548 C467.66840854 545.37014192 467.66840854 545.37014192 467 543 C460.0113737 535.28841235 447.80495513 532.77804742 438 531 C437.09854248 530.83153564 436.19708496 530.66307129 435.26831055 530.48950195 C426.35542861 528.95217983 417.57966656 528.55858953 408.5625 528.5625 C407.82109772 528.56176483 407.07969543 528.56102966 406.31582642 528.56027222 C378.10504026 528.63341705 356.31027941 536.32396639 337.2890625 558.0625 Z M42 533 C42 626.39 42 719.78 42 816 C54.54 816 67.08 816 80 816 C80 722.61 80 629.22 80 533 C67.46 533 54.92 533 42 533 Z M528 534 C527.89998109 536.60335453 527.86559476 539.18024507 527.87301636 541.78413391 C527.87145637 542.60956623 527.86989638 543.43499854 527.86828911 544.28544396 C527.8642752 547.07353311 527.8674704 549.86156857 527.87060547 552.6496582 C527.86925149 554.64016248 527.86747157 556.6306665 527.86529541 558.62117004 C527.86071747 564.04736955 527.86251297 569.47355014 527.8656745 574.89974999 C527.8682001 580.57698128 527.86585964 586.25421091 527.86428833 591.93144226 C527.86246559 601.47911877 527.86487396 611.02678756 527.86962891 620.57446289 C527.87505461 631.59587772 527.87332164 642.61727401 527.8678025 653.63868839 C527.86325386 663.10208905 527.8626299 672.56548414 527.86524117 682.02888554 C527.86679652 687.67987222 527.86701842 693.33085021 527.86370468 698.98183632 C527.86080115 704.30626853 527.86284706 709.63067706 527.86859894 714.95510674 C527.86991401 716.90287359 527.86955387 718.85064247 527.86733627 720.79840851 C527.77498366 740.26514023 527.77498366 740.26514023 531.125 759.375 C531.45213989 760.58917603 531.45213989 760.58917603 531.78588867 761.82788086 C535.15927979 773.70451576 540.70276409 783.81023274 549 793 C549.84691406 793.95132813 549.84691406 793.95132813 550.7109375 794.921875 C567.66439139 812.91004673 593.0349471 819.9736594 617 821 C647.86606056 821.80060185 677.11422203 816.93923843 701 796 C704.23640413 792.83162839 707.17514994 789.53825415 710 786 C710.54011719 785.34128906 711.08023438 784.68257812 711.63671875 784.00390625 C715.16502412 779.25319587 717.45808664 774.00878914 719.6875 768.5625 C719.97318848 767.89025391 720.25887695 767.21800781 720.55322266 766.52539062 C726.32678225 751.65686808 726.43294042 735.56785731 726.34057617 719.86279297 C726.33972763 717.81090304 726.34020946 715.75901221 726.34190369 713.7071228 C726.3427562 708.19588573 726.32525238 702.68484888 726.30418181 697.17365789 C726.28528953 691.39215992 726.28365476 685.61065617 726.28010559 679.82913208 C726.27082171 668.90740347 726.24625797 657.98576612 726.21605712 647.0640775 C726.18239857 634.61892788 726.16599843 622.17377366 726.15097082 609.72858977 C726.11970475 584.1523428 726.06701619 558.57617654 726 533 C720.89136104 532.9753499 715.78275641 532.95716393 710.67407227 532.94506836 C708.93480832 532.94002796 707.19554864 532.9331957 705.45629883 532.92456055 C702.96174063 532.91248208 700.46723827 532.90676892 697.97265625 532.90234375 C697.19036148 532.89718246 696.40806671 532.89202118 695.60206604 532.88670349 C693.73432886 532.88650774 691.86670796 532.93800306 690 533 C688.05116304 534.94883696 688.84957697 538.69282621 688.84851074 541.35307312 C688.84427833 542.13217523 688.84004592 542.91127734 688.83568525 543.7139886 C688.8225876 546.34537898 688.81661783 548.976739 688.81054688 551.6081543 C688.80260935 553.48704211 688.79422179 555.36592807 688.78541565 557.24481201 C688.76731181 561.3034124 688.75231216 565.36200856 688.73963928 569.4206295 C688.71944386 575.84732538 688.69178196 582.27397562 688.66296387 588.70063782 C688.60277362 602.36290372 688.55108684 616.02519752 688.5 629.6875 C688.44488537 644.39170932 688.3881366 659.09590462 688.32245111 673.80007106 C688.29423757 680.17789075 688.27059077 686.55570566 688.25052643 692.93355596 C688.23704032 696.92215432 688.21963253 700.91072891 688.20121574 704.89930725 C688.19352609 706.73657434 688.18742812 708.57384896 688.18312263 710.41112709 C688.12872333 732.77264083 687.53154173 753.61010605 671.26171875 770.93359375 C655.78985991 785.06936806 637.05571033 787.08083123 617.01806641 786.23828125 C603.48110594 785.16951621 591.24851722 778.84519575 582 769 C581.34 769 580.68 769 580 769 C579.72800781 768.41734375 579.45601562 767.8346875 579.17578125 767.234375 C578.01670463 765.03174435 576.68852779 763.23024774 575.1875 761.25 C566.65774921 748.30222063 566.26801699 734.22205436 566.34057617 719.2734375 C566.33210431 717.2415367 566.32145174 715.20964401 566.30880737 713.17776489 C566.28087281 707.71182936 566.28309491 702.24628909 566.29110122 696.78030396 C566.29424413 691.04944175 566.26913992 685.31870155 566.24714661 679.58789062 C566.20981837 668.75819816 566.19756527 657.92863124 566.1945222 647.09888077 C566.18981917 634.76011122 566.15685598 622.42146648 566.12162435 610.08275223 C566.04983716 584.7218499 566.01319665 559.36099577 566 534 C562.89049471 532.44524736 559.5955297 532.85800476 556.18359375 532.8671875 C555.41193375 532.86623077 554.64027374 532.86527405 553.8452301 532.86428833 C552.21363239 532.86360754 550.58203197 532.8654548 548.95043945 532.86962891 C546.44411179 532.87498587 543.93796275 532.86967681 541.43164062 532.86328125 C539.84895794 532.86394191 538.26627536 532.86522281 536.68359375 532.8671875 C535.92944687 532.86516327 535.17529999 532.86313904 534.39830017 532.86105347 C530.90768165 532.55781704 530.90768165 532.55781704 528 534 Z M786 533 C786 626.39 786 719.78 786 816 C840.78 816 895.56 816 952 816 C952 804.78 952 793.56 952 782 C909.76 781.67 867.52 781.34 824 781 C823.67 747.34 823.34 713.68 823 679 C869.4375 679.0625 869.4375 679.0625 884.12280273 679.09008789 C888.45111811 679.09343146 888.45111811 679.09343146 892.7794342 679.09544373 C894.71355926 679.09698351 896.64768333 679.10050913 898.58180237 679.10557556 C901.5043404 679.1128512 904.42681956 679.11390748 907.34936523 679.11352539 C908.21702483 679.1171235 909.08468443 679.12072161 909.97863674 679.12442875 C913.79747821 679.49315887 913.79747821 679.49315887 917 678 C917 667.77 917 657.54 917 647 C886.31 646.67 855.62 646.34 824 646 C824 620.26 824 594.52 824 568 C866.9 567.67 909.8 567.34 954 567 C954 555.78 954 544.56 954 533 C898.56 533 843.12 533 786 533 Z " fill="#000000" transform="translate(0,1)"/>
<path d="M0 0 C20.46 0 40.92 0 62 0 C62.33 41.91 62.66 83.82 63 127 C67.29 120.73 71.58 114.46 76 108 C78.10375 104.926875 80.2075 101.85375 82.375 98.6875 C87.730715 90.86219727 93.07336743 83.02803026 98.41357422 75.19213867 C102.43623923 69.29054051 106.46516954 63.39328653 110.5 57.5 C115.13205064 50.73396349 119.75628674 43.96264819 124.375 37.1875 C125.3016748 35.82842529 125.3016748 35.82842529 126.24707031 34.44189453 C129.56053725 29.58151384 132.87148438 24.7194339 136.1796875 19.85546875 C137.2018335 18.35367065 137.2018335 18.35367065 138.24462891 16.8215332 C139.55237909 14.90002882 140.85938124 12.97801505 142.16552734 11.05541992 C143.05038818 9.75568237 143.05038818 9.75568237 143.953125 8.4296875 C144.47036133 7.66897949 144.98759766 6.90827148 145.52050781 6.12451172 C146.00874023 5.42342285 146.49697266 4.72233398 147 4 C147.42382462 3.30554779 147.84764923 2.61109558 148.28431702 1.89559937 C150 0 150 0 152.25895691 -0.48101807 C153.1405397 -0.47213562 154.0221225 -0.46325317 154.93041992 -0.45410156 C155.93123093 -0.45379944 156.93204193 -0.45349731 157.96318054 -0.45318604 C159.5804882 -0.42221832 159.5804882 -0.42221832 161.23046875 -0.390625 C162.88880486 -0.38213531 162.88880486 -0.38213531 164.5806427 -0.37347412 C168.11669964 -0.35105795 171.65174859 -0.30084996 175.1875 -0.25 C177.58266767 -0.22994187 179.97785121 -0.21168991 182.37304688 -0.1953125 C188.24904267 -0.151176 194.12444933 -0.08421128 200 0 C201.57139781 2.71305364 203.10144303 5.44733799 204.625 8.1875 C205.07101562 8.95642578 205.51703125 9.72535156 205.9765625 10.51757812 C209.14175339 16.27921467 209.14175339 16.27921467 208.45288086 19.78198242 C207.97343018 20.51392822 207.49397949 21.24587402 207 22 C206.55857666 22.70938721 206.11715332 23.41877441 205.66235352 24.1496582 C205.15631592 24.85952881 204.65027832 25.56939941 204.12890625 26.30078125 C203.56059082 27.10427002 202.99227539 27.90775879 202.40673828 28.7355957 C201.79813965 29.58597412 201.18954102 30.43635254 200.5625 31.3125 C199.2793849 33.12460147 197.99683859 34.93710581 196.71484375 36.75 C196.08046387 37.64460938 195.44608398 38.53921875 194.79248047 39.4609375 C192.37165844 42.89005069 189.99371616 46.34728211 187.625 49.8125 C183.15738961 56.33519443 178.64532072 62.82624256 174.125 69.3125 C167.52822199 78.78180497 160.99197367 88.29069534 154.48632812 97.82275391 C152.59096052 100.59918103 150.69437747 103.37475526 148.79321289 106.1472168 C147.89973328 107.45067049 147.00824448 108.75549139 146.11889648 110.06176758 C143.68644787 113.61750492 141.1903795 117.10987246 138.61328125 120.5625 C138.05261963 121.3241748 137.49195801 122.08584961 136.91430664 122.87060547 C135.8303954 124.33882263 134.73251199 125.79685915 133.61889648 127.24267578 C132.8871521 128.24016846 132.8871521 128.24016846 132.140625 129.2578125 C131.70266602 129.8367627 131.26470703 130.41571289 130.81347656 131.01220703 C129.58685297 134.00955676 130.15688642 135.90586201 131 139 C132.55491564 142.05093319 132.55491564 142.05093319 134.57421875 145.07421875 C135.30690503 146.22417456 136.03915283 147.37440985 136.77099609 148.52490234 C137.14399841 149.1043158 137.51700073 149.68372925 137.90130615 150.28070068 C139.58679291 152.91824729 141.20797223 155.59384466 142.83203125 158.26953125 C143.79689453 159.85411133 143.79689453 159.85411133 144.78125 161.47070312 C145.4515625 162.57349609 146.121875 163.67628906 146.8125 164.8125 C147.17005371 165.40071533 147.52760742 165.98893066 147.89599609 166.5949707 C154.23696134 177.03328176 160.48403144 187.5256364 166.70498657 198.03579712 C172.92055092 208.53437917 179.21863166 218.97897997 185.57055664 229.39550781 C191.92614083 239.83027413 198.15734385 250.3376367 204.36230469 260.86254883 C207.64923568 266.42861294 210.93909726 271.97776732 214.45703125 277.40234375 C214.94115479 278.14967773 215.42527832 278.89701172 215.92407227 279.66699219 C216.76877545 280.95418858 217.62610346 282.23325044 218.49975586 283.50097656 C220.03664676 285.83223512 221.04369638 287.38248325 220.84277344 290.22192383 C219.71960026 293.92429566 217.91145849 297.00211365 215.9375 300.3125 C215.56044922 300.95767578 215.18339844 301.60285156 214.79492188 302.26757812 C213.86962507 303.84878152 212.93567319 305.4249146 212 307 C205.10189918 307.48526704 198.2082234 307.81572267 191.296875 308.04370117 C188.95210521 308.13876377 186.60844798 308.2680905 184.26757812 308.43334961 C165.40854936 309.73051023 165.40854936 309.73051023 159.81799316 305.25204468 C155.96882517 300.76547851 153.43654008 295.69354525 151.05065918 290.31710815 C149.72080203 287.38426094 148.07474681 284.72897966 146.328125 282.02734375 C145.30060347 280.33162501 144.27455118 278.63501507 143.25 276.9375 C138.23726448 268.66951289 133.19570442 260.42006841 128.125 252.1875 C127.45831299 251.1046875 126.79162598 250.021875 126.10473633 248.90625 C122.72563475 243.4197299 119.34293281 237.93545097 115.95703125 232.453125 C106.85448442 217.70364823 97.88030903 202.88417014 89 188 C85.55029891 189.14990036 85.15961129 189.82890827 83.21484375 192.76171875 C82.68310547 193.55255859 82.15136719 194.34339844 81.60351562 195.15820312 C81.05373047 195.99287109 80.50394531 196.82753906 79.9375 197.6875 C78.86508836 199.29677863 77.7908138 200.90481711 76.71484375 202.51171875 C75.90428276 203.75720238 75.90428276 203.75720238 75.0773468 205.02784729 C73 208 73 208 70.491745 210.89671326 C62.08084217 220.78921927 61.587157 229.33314166 61.8046875 241.9609375 C61.80089162 243.84666287 61.79268548 245.73238397 61.78030396 247.61807251 C61.759668 252.53425723 61.79814765 257.44818904 61.84979248 262.36407471 C61.89938116 268.28722011 61.87405275 274.21048117 61.86157227 280.13375854 C61.85094265 289.09054253 61.93427441 298.04198905 62 307 C41.54 307 21.08 307 0 307 C0 205.69 0 104.38 0 0 Z M13 12 C13 105.39 13 198.78 13 295 C25.21 295 37.42 295 50 295 C49.94457031 289.6271875 49.88914062 284.254375 49.83203125 278.71875 C49.82141039 275.2823297 49.81407611 271.84651194 49.81835938 268.41015625 C49.82482871 262.97432861 49.82018189 257.54034729 49.74291992 252.10498047 C49.6812796 247.71448568 49.67484802 243.32684571 49.70416832 238.93605042 C49.70604863 237.27453187 49.68916978 235.61286568 49.65177345 233.95176697 C49.38143799 221.10888765 52.63227477 213.53215346 60.72440338 203.5824585 C62.35010196 201.56567632 63.82010418 199.45701264 65.27734375 197.31640625 C66.16282128 196.06422552 67.04950407 194.81289605 67.9375 193.5625 C71.0757094 189.141329 74.20347119 184.7147433 77.28515625 180.25390625 C77.82342041 179.47909912 78.36168457 178.70429199 78.91625977 177.90600586 C79.94658485 176.42206455 80.97208438 174.93475718 81.99194336 173.44360352 C84.35981537 170.04568879 86.41065214 167.21794608 90 165 C90.25507324 165.69802734 90.51014648 166.39605469 90.77294922 167.11523438 C92.14131568 170.33222963 93.80865311 173.17364327 95.6328125 176.15625 C95.98834198 176.73983276 96.34387146 177.32341553 96.71017456 177.92468262 C97.84489922 179.78531759 98.98486198 181.64267839 100.125 183.5 C100.86753149 184.71593584 101.60972175 185.93208012 102.3515625 187.1484375 C104.20060878 190.17785548 106.05537294 193.20372093 107.91256714 196.22814941 C108.97192199 197.95425001 110.02908201 199.68169703 111.08618164 201.40917969 C115.95103025 209.34492354 120.93289885 217.19914358 125.97460938 225.0234375 C129.09218027 229.8922579 132.05334866 234.7935937 134.82202148 239.86865234 C136.75773816 243.37099567 138.844032 246.77783392 140.9375 250.1875 C141.39914551 250.94216553 141.86079102 251.69683105 142.33642578 252.47436523 C146.84362748 259.80916312 151.47418376 267.06505139 156.14038086 274.29956055 C159.23050697 279.11428404 162.15927208 283.95538664 164.84619141 289.00756836 C165.22694824 289.6650708 165.60770508 290.32257324 166 291 C166.3508667 291.73645752 166.7017334 292.47291504 167.06323242 293.23168945 C170.30145603 296.18825741 174.04546127 295.48938952 178.26171875 295.390625 C179.16751175 295.38496521 180.07330475 295.37930542 181.00654602 295.37347412 C183.90073411 295.35107616 186.7936859 295.30087392 189.6875 295.25 C191.64907067 295.2299394 193.61066073 295.21168786 195.57226562 295.1953125 C200.38198706 295.15120018 205.1907839 295.08214941 210 295 C206.05018025 287.65388347 201.9522585 280.41746698 197.6875 273.25 C197.11918457 272.2919043 196.55086914 271.33380859 195.96533203 270.34667969 C194.31274922 267.56293969 192.65709702 264.78105465 191 262 C190.57251465 261.28199219 190.1450293 260.56398438 189.70458984 259.82421875 C184.88848328 251.742715 179.99559412 243.70932983 175.08325195 235.68603516 C171.09522883 229.16802074 167.15662552 222.62150663 163.23486328 216.06347656 C160.30895472 211.17423592 157.37506712 206.28976788 154.44165039 201.4050293 C152.17325167 197.62676938 149.90676141 193.8475407 147.65625 190.05859375 C143.48557912 183.04865488 139.19458108 176.13008223 134.8125 169.25 C131.13773144 163.47723741 127.60658095 157.70395122 124.453125 151.625 C123.30255493 149.54655084 122.10632953 147.60136792 120.796875 145.625 C120.41692383 145.04347168 120.03697266 144.46194336 119.64550781 143.86279297 C118.55889042 142.21433973 117.45187039 140.57938858 116.34375 138.9453125 C115 136 115 136 115.5859375 133.421875 C117.03918881 130.93288105 118.50731924 128.51162319 120.125 126.125 C120.83269531 125.08085937 121.54039062 124.03671875 122.26953125 122.9609375 C127.15436125 115.85470426 132.09078287 108.78400473 137.0234375 101.7109375 C140.79603259 96.29870765 144.54110938 90.86818501 148.27319336 85.42797852 C150.96316237 81.50703255 153.66433421 77.59419193 156.375 73.6875 C159.45119984 69.25077839 162.50515371 64.79967651 165.5480957 60.34008789 C170.71091206 52.77385174 175.91924183 45.24324052 181.1875 37.75 C185.4763196 31.643501 189.72574922 25.5148716 193.875 19.3125 C194.2980542 18.6824707 194.7211084 18.05244141 195.15698242 17.40332031 C197.13745807 14.90222437 197.13745807 14.90222437 198 12 C192.32622892 11.70160195 186.65708517 11.48486774 180.97729492 11.34082031 C179.04940206 11.28075028 177.12204974 11.19905661 175.19604492 11.09472656 C163.95809574 10.1824578 163.95809574 10.1824578 153.9609375 14.29833984 C151.59856911 17.4114006 149.8032152 20.5361575 148 24 C146.64361906 26.03772503 145.26613284 28.06157048 143.8671875 30.0703125 C142.53283465 32.0861477 141.20209257 34.10437772 139.875 36.125 C135.01716721 43.49192701 130.08767525 50.7898494 125 58 C123.34641751 60.36968644 121.70207549 62.74560408 120.0625 65.125 C119.61285889 65.77750732 119.16321777 66.43001465 118.69995117 67.10229492 C113.65966767 74.44819537 108.7401689 81.87493003 103.83422852 89.31103516 C99.95938573 95.15865819 95.94782646 100.87316019 91.79711914 106.52807617 C89.5413127 109.63092092 87.41862773 112.79354343 85.3125 116 C80.98821918 122.54756582 76.57244617 129.02815996 72.12084961 135.48974609 C69.08493961 139.90943092 66.09835457 144.35583527 63.1640625 148.84375 C62.53145508 149.80780762 61.89884766 150.77186523 61.24707031 151.76513672 C60.01816352 153.64247295 58.79592276 155.52419316 57.58105469 157.41064453 C57.02579102 158.25739746 56.47052734 159.10415039 55.8984375 159.9765625 C55.41036621 160.73018066 54.92229492 161.48379883 54.41943359 162.26025391 C53 164 53 164 50 165 C50 114.51 50 64.02 50 12 C37.79 12 25.58 12 13 12 Z " fill="#FBFBFB" transform="translate(229,73)"/>
<path d="M0 0 C20.46 0 40.92 0 62 0 C62.00410889 6.50549561 62.00821777 13.01099121 62.01245117 19.71362305 C62.02965088 41.21124667 62.07390512 62.70875177 62.13209057 84.20630169 C62.16670718 97.23984832 62.19209174 110.27328955 62.19555664 123.30688477 C62.19860114 134.67024275 62.21915721 146.03341285 62.26052457 157.3966983 C62.28181183 163.41053982 62.294477 169.42411452 62.28615379 175.437994 C62.27858683 181.10570436 62.29454442 186.77287527 62.32806015 192.44048691 C62.33626149 194.51359658 62.33608134 196.58676022 62.32659721 198.65986443 C62.25217668 216.72476814 65.39510061 229.23454682 77.9453125 242.95703125 C80.70689983 245.70286808 83.42645029 247.54486139 87 249 C88.299375 249.55494141 88.299375 249.55494141 89.625 250.12109375 C104.00409187 255.42154981 120.82547086 254.60349807 135 249 C145.39995557 243.97574111 152.95066677 235.88138362 157 225 C158.70563231 219.12259638 159.2928508 213.90127751 159.2784729 207.79980469 C159.2871615 206.4603553 159.2871615 206.4603553 159.29602563 205.09384632 C159.31294872 202.11981863 159.3158955 199.14594685 159.31884766 196.171875 C159.32815114 194.0327873 159.33832043 191.89370322 159.34928894 189.75462341 C159.37655558 183.95983508 159.39172852 178.16507101 159.40471697 172.37023544 C159.42036206 166.30970227 159.44714791 160.24921853 159.4727478 154.1887207 C159.51951113 142.71777394 159.55626712 131.24681784 159.58942068 119.77582455 C159.62765931 106.71418824 159.67706494 93.65260163 159.72740483 80.59100723 C159.83068835 53.7273703 159.91848637 26.86371242 160 0 C180.46 0 200.92 0 222 0 C222.09050781 28.71290758 222.16410251 57.42569856 222.20724869 86.13871288 C222.21135441 88.79991351 222.21549297 91.46111403 222.21972656 94.12231445 C222.2207758 94.78371303 222.22182505 95.4451116 222.22290608 96.12655256 C222.23916826 106.13104353 222.26730255 116.13544565 222.30175781 126.13989258 C222.34179205 137.76985995 222.36747212 149.39975823 222.37635398 161.02979261 C222.38154075 167.18027482 222.39361722 173.33055949 222.42292023 179.48097801 C222.45035209 185.28646349 222.45838964 191.09167266 222.45243073 196.8972168 C222.45351867 199.01214926 222.46130518 201.12709233 222.4768219 203.24196815 C222.68811797 233.56401645 216.10235399 260.01524542 194.75 282.5625 C168.80095647 307.40360684 134.83666314 312.87890568 100.23046875 312.28515625 C70.91939614 311.38298673 43.3045637 300.26079346 22.8359375 279.08203125 C14.28576645 269.38577345 8.89978962 258.13975913 4.75 246 C4.5037085 245.28908203 4.25741699 244.57816406 4.00366211 243.84570312 C-0.40708432 230.37730987 -0.27714544 216.99147606 -0.22705078 202.98339844 C-0.2264859 200.76490789 -0.22680472 198.54641697 -0.22793579 196.32792664 C-0.22850732 190.33499357 -0.21678544 184.34214131 -0.20278788 178.34922695 C-0.1902471 172.07520907 -0.18910738 165.80118913 -0.18673706 159.52716064 C-0.18123616 149.00621241 -0.16876156 138.48528901 -0.15087891 127.96435547 C-0.13248841 117.13330227 -0.11834747 106.30225709 -0.10986328 95.47119141 C-0.10933783 94.80227008 -0.10881239 94.13334876 -0.10827102 93.44415709 C-0.10566072 90.08798872 -0.10313336 86.7318203 -0.10064721 83.37565184 C-0.07976753 55.58374265 -0.04310361 27.79188422 0 0 Z M12 13 C11.89998109 15.60335453 11.86559476 18.18024507 11.87301636 20.78413391 C11.87145637 21.60956623 11.86989638 22.43499854 11.86828911 23.28544396 C11.8642752 26.07353311 11.8674704 28.86156857 11.87060547 31.6496582 C11.86925149 33.64016248 11.86747157 35.6306665 11.86529541 37.62117004 C11.86071747 43.04736955 11.86251297 48.47355014 11.8656745 53.89974999 C11.8682001 59.57698128 11.86585964 65.25421091 11.86428833 70.93144226 C11.86246559 80.47911877 11.86487396 90.02678756 11.86962891 99.57446289 C11.87505461 110.59587772 11.87332164 121.61727401 11.8678025 132.63868839 C11.86325386 142.10208905 11.8626299 151.56548414 11.86524117 161.02888554 C11.86679652 166.67987222 11.86701842 172.33085021 11.86370468 177.98183632 C11.86080115 183.30626853 11.86284706 188.63067706 11.86859894 193.95510674 C11.86991401 195.90287359 11.86955387 197.85064247 11.86733627 199.79840851 C11.77498366 219.26514023 11.77498366 219.26514023 15.125 238.375 C15.45213989 239.58917603 15.45213989 239.58917603 15.78588867 240.82788086 C19.15927979 252.70451576 24.70276409 262.81023274 33 272 C33.84691406 272.95132813 33.84691406 272.95132813 34.7109375 273.921875 C51.66439139 291.91004673 77.0349471 298.9736594 101 300 C131.86606056 300.80060185 161.11422203 295.93923843 185 275 C188.23640413 271.83162839 191.17514994 268.53825415 194 265 C194.54011719 264.34128906 195.08023438 263.68257812 195.63671875 263.00390625 C199.16502412 258.25319587 201.45808664 253.00878914 203.6875 247.5625 C203.97318848 246.89025391 204.25887695 246.21800781 204.55322266 245.52539062 C210.32678225 230.65686808 210.43294042 214.56785731 210.34057617 198.86279297 C210.33972763 196.81090304 210.34020946 194.75901221 210.34190369 192.7071228 C210.3427562 187.19588573 210.32525238 181.68484888 210.30418181 176.17365789 C210.28528953 170.39215992 210.28365476 164.61065617 210.28010559 158.82913208 C210.27082171 147.90740347 210.24625797 136.98576612 210.21605712 126.0640775 C210.18239857 113.61892788 210.16599843 101.17377366 210.15097082 88.72858977 C210.11970475 63.1523428 210.06701619 37.57617654 210 12 C204.89136104 11.9753499 199.78275641 11.95716393 194.67407227 11.94506836 C192.93480832 11.94002796 191.19554864 11.9331957 189.45629883 11.92456055 C186.96174063 11.91248208 184.46723827 11.90676892 181.97265625 11.90234375 C181.19036148 11.89718246 180.40806671 11.89202118 179.60206604 11.88670349 C177.73432886 11.88650774 175.86670796 11.93800306 174 12 C172.05116304 13.94883696 172.84957697 17.69282621 172.84851074 20.35307312 C172.84427833 21.13217523 172.84004592 21.91127734 172.83568525 22.7139886 C172.8225876 25.34537898 172.81661783 27.976739 172.81054688 30.6081543 C172.80260935 32.48704211 172.79422179 34.36592807 172.78541565 36.24481201 C172.76731181 40.3034124 172.75231216 44.36200856 172.73963928 48.4206295 C172.71944386 54.84732538 172.69178196 61.27397562 172.66296387 67.70063782 C172.60277362 81.36290372 172.55108684 95.02519752 172.5 108.6875 C172.44488537 123.39170932 172.3881366 138.09590462 172.32245111 152.80007106 C172.29423757 159.17789075 172.27059077 165.55570566 172.25052643 171.93355596 C172.23704032 175.92215432 172.21963253 179.91072891 172.20121574 183.89930725 C172.19352609 185.73657434 172.18742812 187.57384896 172.18312263 189.41112709 C172.12872333 211.77264083 171.53154173 232.61010605 155.26171875 249.93359375 C139.78985991 264.06936806 121.05571033 266.08083123 101.01806641 265.23828125 C87.48110594 264.16951621 75.24851722 257.84519575 66 248 C65.34 248 64.68 248 64 248 C63.72800781 247.41734375 63.45601562 246.8346875 63.17578125 246.234375 C62.01670463 244.03174435 60.68852779 242.23024774 59.1875 240.25 C50.65774921 227.30222063 50.26801699 213.22205436 50.34057617 198.2734375 C50.33210431 196.2415367 50.32145174 194.20964401 50.30880737 192.17776489 C50.28087281 186.71182936 50.28309491 181.24628909 50.29110122 175.78030396 C50.29424413 170.04944175 50.26913992 164.31870155 50.24714661 158.58789062 C50.20981837 147.75819816 50.19756527 136.92863124 50.1945222 126.09888077 C50.18981917 113.76011122 50.15685598 101.42146648 50.12162435 89.08275223 C50.04983716 63.7218499 50.01319665 38.36099577 50 13 C46.89049471 11.44524736 43.5955297 11.85800476 40.18359375 11.8671875 C39.41193375 11.86623077 38.64027374 11.86527405 37.8452301 11.86428833 C36.21363239 11.86360754 34.58203197 11.8654548 32.95043945 11.86962891 C30.44411179 11.87498587 27.93796275 11.86967681 25.43164062 11.86328125 C23.84895794 11.86394191 22.26627536 11.86522281 20.68359375 11.8671875 C19.92944687 11.86516327 19.17529999 11.86313904 18.39830017 11.86105347 C14.90768165 11.55781704 14.90768165 11.55781704 12 13 Z " fill="#FBFBFB" transform="translate(516,522)"/>
<path d="M0 0 C63.69 0 127.38 0 193 0 C193 19.14 193 38.28 193 58 C149.77 58 106.54 58 62 58 C62 76.48 62 94.96 62 114 C93.02 114 124.04 114 156 114 C156 132.48 156 150.96 156 170 C124.98 170 93.96 170 62 170 C62 196.07 62 222.14 62 249 C104.57 249 147.14 249 191 249 C191 268.14 191 287.28 191 307 C127.97 307 64.94 307 0 307 C0 205.69 0 104.38 0 0 Z M13 12 C13 105.39 13 198.78 13 295 C67.78 295 122.56 295 179 295 C179 283.78 179 272.56 179 261 C136.76 260.67 94.52 260.34 51 260 C50.67 226.34 50.34 192.68 50 158 C96.4375 158.0625 96.4375 158.0625 111.12280273 158.09008789 C115.45111811 158.09343146 115.45111811 158.09343146 119.7794342 158.09544373 C121.71355926 158.09698351 123.64768333 158.10050913 125.58180237 158.10557556 C128.5043404 158.1128512 131.42681956 158.11390748 134.34936523 158.11352539 C135.21702483 158.1171235 136.08468443 158.12072161 136.97863674 158.12442875 C140.79747821 158.49315887 140.79747821 158.49315887 144 157 C144 146.77 144 136.54 144 126 C113.31 125.67 82.62 125.34 51 125 C51 99.26 51 73.52 51 47 C93.9 46.67 136.8 46.34 181 46 C181 34.78 181 23.56 181 12 C125.56 12 70.12 12 13 12 Z " fill="#FBFBFB" transform="translate(773,522)"/>
<path d="M0 0 C1.86294382 1.61781963 3.64364307 3.27945846 5.4140625 4.99609375 C2.77256432 15.86883085 -1.05725149 26.37167017 -4.7109375 36.93359375 C-5.6804229 39.74259703 -6.64888571 42.55194325 -7.615448 45.36195374 C-8.21347463 47.09992566 -8.81327029 48.83729016 -9.41506958 50.57395935 C-9.6856015 51.35900345 -9.95613342 52.14404755 -10.23486328 52.95288086 C-10.47230255 53.63918076 -10.70974182 54.32548065 -10.95437622 55.03257751 C-11.5886687 57.00458501 -12.10676324 58.9813062 -12.5859375 60.99609375 C-16.80247971 59.54424405 -19.90144625 57.40891927 -23.4609375 54.74609375 C-37.30179947 44.78964796 -54.47113899 39.84722772 -71.3984375 39.74609375 C-72.24986328 39.72546875 -73.10128906 39.70484375 -73.97851562 39.68359375 C-81.18270567 39.63969922 -88.0406159 40.785768 -93.8984375 45.24609375 C-96.97970339 48.39901698 -98.61701329 51.05824534 -100.5859375 54.99609375 C-100.9984375 55.75921875 -101.4109375 56.52234375 -101.8359375 57.30859375 C-104.33035089 66.24690839 -102.30159425 76.31236344 -98.3671875 84.546875 C-92.87476452 93.62462964 -83.23997382 97.91205005 -74.0859375 102.62109375 C-72.60347534 103.39151001 -72.60347534 103.39151001 -71.09106445 104.17749023 C-64.77177527 107.43558698 -58.39097912 110.53532889 -51.95751953 113.56079102 C-22.65613704 127.3442584 1.92765032 143.15534022 13.4140625 174.99609375 C19.30640958 195.53906257 21.01323465 220.09656857 12.4140625 239.99609375 C11.91326172 241.28580078 11.91326172 241.28580078 11.40234375 242.6015625 C1.89937591 265.89786763 -18.16191572 281.66115903 -40.7265625 291.34375 C-66.71058621 301.41101985 -97.80674789 302.6195496 -124.5859375 294.99609375 C-125.25286621 294.8141748 -125.91979492 294.63225586 -126.60693359 294.44482422 C-141.03556921 290.42148924 -154.23840133 283.36730472 -166.5859375 274.99609375 C-165.85558996 270.23377909 -164.15783251 265.96745462 -162.41796875 261.50390625 C-161.94202522 260.26941238 -161.94202522 260.26941238 -161.45646667 259.00997925 C-160.44088107 256.37888063 -159.4196428 253.75001554 -158.3984375 251.12109375 C-157.73077067 249.39206186 -157.06344971 247.66289636 -156.39648438 245.93359375 C-152.53056026 235.92561719 -148.59829554 225.94628862 -144.5859375 215.99609375 C-141.55022139 217.47312146 -138.93544035 219.12188518 -136.2109375 221.12109375 C-117.17147243 234.45149069 -97.0257046 241.85310016 -73.5859375 239.99609375 C-69.2940396 239.14694406 -65.53506954 237.8631795 -61.5859375 235.99609375 C-60.82925781 235.64546875 -60.07257813 235.29484375 -59.29296875 234.93359375 C-52.47306438 231.24854223 -48.76601982 224.88153984 -45.5859375 217.99609375 C-43.23148134 207.63648664 -44.87122937 198.03082226 -49.8359375 188.62890625 C-56.04122048 179.5677828 -66.7510886 174.59198661 -76.2734375 169.74609375 C-77.35343018 169.18962158 -78.43342285 168.63314941 -79.54614258 168.05981445 C-86.89277088 164.29902133 -94.31110709 160.70798944 -101.7734375 157.18359375 C-128.26639838 144.6265461 -149.45976184 129.98443186 -159.8984375 101.40234375 C-160.89107322 98.27846075 -161.79193153 95.17604836 -162.5859375 91.99609375 C-162.76181396 91.3827417 -162.93769043 90.76938965 -163.11889648 90.13745117 C-165.02140008 82.88019089 -164.91691663 75.64546505 -164.8984375 68.18359375 C-164.91455078 66.89388672 -164.93066406 65.60417969 -164.94726562 64.27539062 C-164.95824195 42.57520373 -156.41360421 24.50851949 -141.5859375 8.99609375 C-141.05613281 8.39152344 -140.52632812 7.78695312 -139.98046875 7.1640625 C-108.59260735 -27.28996531 -35.35379608 -27.39652173 0 0 Z M-118.5859375 5.99609375 C-119.59914062 6.70121094 -120.61234375 7.40632812 -121.65625 8.1328125 C-137.04870969 19.27059967 -148.62881206 33.41253596 -152.24462891 52.47851562 C-154.0670636 65.9212528 -154.06975425 81.08486238 -149.5859375 93.99609375 C-149.23402344 95.07503906 -148.88210937 96.15398437 -148.51953125 97.265625 C-140.52742809 119.92310558 -124.14371322 132.92099419 -103.21484375 143.1796875 C-99.71609887 144.84769843 -96.18807657 146.44800168 -92.65625 148.04443359 C-86.5482645 150.85209013 -80.57202672 153.93962137 -74.5859375 156.99609375 C-73.93318848 157.32609375 -73.28043945 157.65609375 -72.60791016 157.99609375 C-62.05757629 163.34835626 -51.57872764 169.06297536 -43.5859375 177.99609375 C-42.7609375 178.84171875 -41.9359375 179.68734375 -41.0859375 180.55859375 C-32.94254353 190.76360644 -31.86267635 203.39067811 -32.80859375 215.953125 C-34.67895851 227.48401451 -41.05354017 236.79784764 -50.2734375 243.68359375 C-64.45709337 253.1892065 -83.00399512 254.07068418 -99.4609375 250.99609375 C-105.6108134 249.4731292 -111.52968246 247.32922204 -117.4609375 245.12109375 C-118.78134033 244.62996094 -118.78134033 244.62996094 -120.12841797 244.12890625 C-125.12657444 242.18765375 -129.45296152 239.99977818 -133.80126953 236.84716797 C-135.56531836 235.84885586 -135.56531836 235.84885586 -137.6394043 235.99560547 C-140.65410488 237.54511544 -141.11835487 239.72183765 -142.34765625 242.82421875 C-142.82654297 244.01660156 -143.30542969 245.20898438 -143.79882812 246.4375 C-144.04093018 247.06285645 -144.28303223 247.68821289 -144.5324707 248.33251953 C-145.2674801 250.23070854 -146.02302797 252.11957981 -146.78320312 254.0078125 C-149.72679883 261.34105613 -149.72679883 261.34105613 -151.5859375 268.99609375 C-147.86748488 272.20748465 -144.03113945 274.46608753 -139.5859375 276.49609375 C-138.92948242 276.79797607 -138.27302734 277.0998584 -137.59667969 277.41088867 C-110.37803892 289.62648347 -75.42765375 291.11265335 -47.20117188 281.15478516 C-33.42120441 275.82762382 -21.20406292 268.44285043 -11.5859375 256.99609375 C-11.5859375 256.33609375 -11.5859375 255.67609375 -11.5859375 254.99609375 C-10.9259375 254.99609375 -10.2659375 254.99609375 -9.5859375 254.99609375 C-5.24476668 249.17935256 -1.42315355 242.68664509 1.4140625 235.99609375 C1.70152344 235.33222656 1.98898437 234.66835938 2.28515625 233.984375 C8.22698322 217.69410298 6.34297988 196.19742309 1.4140625 179.99609375 C1.13691406 179.08214844 0.85976563 178.16820312 0.57421875 177.2265625 C-2.23741369 168.79166519 -6.67084344 161.36873484 -11.5859375 153.99609375 C-12.2459375 153.99609375 -12.9059375 153.99609375 -13.5859375 153.99609375 C-13.5859375 153.33609375 -13.5859375 152.67609375 -13.5859375 151.99609375 C-26.0231249 138.00922486 -46.01215784 129.34642146 -62.81469727 121.9934082 C-83.21588677 113.04620703 -103.1803452 104.27156845 -112.55859375 82.765625 C-116.36270455 72.20258245 -115.81729457 60.03769838 -111.875 49.62890625 C-110.2150935 46.23867297 -108.20196384 43.38717416 -105.7578125 40.51953125 C-104.38270058 39.05222207 -104.38270058 39.05222207 -104.5859375 36.99609375 C-104.0084375 36.71636719 -103.4309375 36.43664062 -102.8359375 36.1484375 C-100.60867755 35.04323917 -100.60867755 35.04323917 -98.6484375 33.8125 C-84.66020164 25.30828843 -68.18640619 25.27985307 -52.5859375 28.99609375 C-43.42269601 31.4244476 -34.85491689 34.517432 -26.36987305 38.76049805 C-23.55201048 40.1599187 -21.78301801 40.99609375 -18.5859375 40.99609375 C-17.29446278 37.24570308 -16.01306677 33.49203282 -14.74072266 29.73510742 C-14.09412331 27.83267809 -13.43968808 25.93291788 -12.78515625 24.03320312 C-12.37910156 22.83115234 -11.97304688 21.62910156 -11.5546875 20.390625 C-10.98911133 18.73317261 -10.98911133 18.73317261 -10.41210938 17.04223633 C-9.62855912 14.15324208 -9.27074739 11.96402538 -9.5859375 8.99609375 C-16.5745638 1.2845061 -28.78098237 -1.22585883 -38.5859375 -3.00390625 C-39.48739502 -3.17237061 -40.38885254 -3.34083496 -41.31762695 -3.5144043 C-50.23079993 -5.05177662 -59.0061081 -5.44418217 -68.0234375 -5.44140625 C-68.76417511 -5.44247375 -69.50491272 -5.44354126 -70.26809692 -5.44464111 C-87.02875478 -5.40992922 -104.49025451 -3.97896626 -118.5859375 5.99609375 Z " fill="#FBFBFB" transform="translate(285.5859375,535.00390625)"/>
<path d="M0 0 C0.82656097 0.00715027 1.65312195 0.01430054 2.50473022 0.02166748 C28.22433534 0.25299849 55.48135715 2.87501723 75.1875 21.4375 C76.36752475 24.97757424 75.94965961 25.85962239 74.75634766 29.30444336 C74.41914703 30.2923436 74.08194641 31.28024384 73.73452759 32.29808044 C73.36064911 33.36373734 72.98677063 34.42939423 72.6015625 35.52734375 C72.03699844 37.17144981 72.03699844 37.17144981 71.46102905 38.84877014 C70.25332332 42.36050124 69.03331163 45.8678059 67.8125 49.375 C66.6013684 52.87945395 65.39274928 56.38476147 64.18539429 59.89051819 C63.43247632 62.07395623 62.67688287 64.25647388 61.91836548 66.43797302 C61.57486053 67.42902542 61.23135559 68.42007782 60.87744141 69.44116211 C60.57464264 70.31147568 60.27184387 71.18178925 59.95986938 72.07847595 C59.26997202 74.18560826 58.69178256 76.27944144 58.1875 78.4375 C53.91397585 76.96277738 50.50355261 74.69154547 46.875 72.0625 C32.26186934 61.80325374 16.13951845 57.30398613 -1.6875 57.125 C-2.64269531 57.09599609 -3.59789062 57.06699219 -4.58203125 57.03710938 C-13.12759378 56.96091437 -19.61737425 59.41446108 -25.8125 65.4375 C-27.3730138 67.71030407 -28.55254438 69.9610355 -29.8125 72.4375 C-30.225 73.200625 -30.6375 73.96375 -31.0625 74.75 C-33.55691339 83.68831464 -31.52815675 93.75376969 -27.59375 101.98828125 C-22.10132702 111.06603589 -12.46653632 115.3534563 -3.3125 120.0625 C-1.83003784 120.83291626 -1.83003784 120.83291626 -0.31762695 121.61889648 C6.00166223 124.87699323 12.38245838 127.97673514 18.81591797 131.00219727 C37.72997847 139.89943397 57.08424995 149.59046423 70.1875 166.4375 C70.77144531 167.17355469 71.35539063 167.90960937 71.95703125 168.66796875 C87.43021462 189.33259055 91.09938223 217.92493035 87.85498047 243.00830078 C87.03765983 247.30325916 85.75165016 251.36204992 84.1875 255.4375 C83.88714844 256.25347656 83.58679688 257.06945312 83.27734375 257.91015625 C82.35899725 260.16427947 81.32103706 262.28377958 80.1875 264.4375 C79.71828125 265.35789062 79.2490625 266.27828125 78.765625 267.2265625 C66.77737919 289.31918692 44.99816936 304.46421491 21.28662109 311.82177734 C-2.54551564 318.81231571 -29.89818424 319.24538825 -53.8125 312.4375 C-54.47942871 312.25558105 -55.14635742 312.07366211 -55.83349609 311.88623047 C-70.26213171 307.86289549 -83.46496383 300.80871097 -95.8125 292.4375 C-95.23546864 288.32638499 -94.31014685 284.74298732 -92.77124023 280.89111328 C-92.14069984 279.30014328 -92.14069984 279.30014328 -91.49742126 277.67703247 C-91.04323318 276.54868988 -90.5890451 275.42034729 -90.12109375 274.2578125 C-89.65639175 273.0899118 -89.19168976 271.92201111 -88.71290588 270.71871948 C-87.48254527 267.62964655 -86.24707091 264.54272301 -85.0090332 261.45672607 C-83.74450991 258.30101038 -82.48680872 255.1425788 -81.22851562 251.984375 C-78.76276593 245.79957094 -76.29023432 239.61751185 -73.8125 233.4375 C-70.77678389 234.91452771 -68.16200285 236.56329143 -65.4375 238.5625 C-46.39803493 251.89289694 -26.2522671 259.29450641 -2.8125 257.4375 C1.4793979 256.58835031 5.23836796 255.30458575 9.1875 253.4375 C9.94417969 253.086875 10.70085937 252.73625 11.48046875 252.375 C17.92491969 248.89282013 21.58038142 243.33971599 24.328125 236.66796875 C26.69898467 227.75569173 26.44535604 216.78339369 22.37109375 208.4375 C12.6963392 192.08939991 -10.29060716 184.52971585 -26.6875 176.75 C-54.76926904 163.39182029 -77.99317631 149.37468945 -89.12109375 118.84765625 C-90.11660713 115.72254649 -91.01800481 112.61941392 -91.8125 109.4375 C-91.98837646 108.81689697 -92.16425293 108.19629395 -92.34545898 107.55688477 C-94.18161443 100.49556488 -94.14379967 93.51043075 -94.125 86.25 C-94.14111328 85.02474609 -94.15722656 83.79949219 -94.17382812 82.53710938 C-94.18007954 70.67816722 -92.44104756 59.37355847 -87.125 48.6875 C-86.77832275 47.97215088 -86.43164551 47.25680176 -86.07446289 46.51977539 C-83.05002153 40.49340711 -79.32992398 35.44155705 -74.8125 30.4375 C-74.26078125 29.74527344 -73.7090625 29.05304687 -73.140625 28.33984375 C-55.35822062 6.36587263 -26.90055602 -0.41571267 0 0 Z M-68.5234375 41.5 C-82.3395516 59.22989386 -83.94493887 80.28997598 -81.53125 101.96289062 C-79.19461059 116.97845409 -71.73667669 131.00387355 -60.8125 141.4375 C-60.13832031 142.11941406 -59.46414063 142.80132813 -58.76953125 143.50390625 C-48.89578154 152.97010907 -36.37871493 158.84135902 -24.07421875 164.47265625 C-17.22706271 167.60684091 -10.51820252 171.01359604 -3.8125 174.4375 C-3.15975098 174.7675 -2.50700195 175.0975 -1.83447266 175.4375 C8.76259493 180.81347087 19.06685606 186.5786157 27.1875 195.4375 C27.868125 196.035625 28.54875 196.63375 29.25 197.25 C37.36188149 206.40857588 38.22743024 218.7464968 38.1875 230.4375 C37.46427927 240.65634111 32.69221215 250.45943432 25.1875 257.4375 C11.24982938 269.01950798 -4.35616326 270.41900998 -21.8125 269.4375 C-36.47254287 267.65411334 -50.14746689 261.63684476 -63.01953125 254.66015625 C-65.81324331 253.0654545 -65.81324331 253.0654545 -68.8125 254.4375 C-69.89430867 256.64960176 -70.78184765 258.76028768 -71.625 261.0625 C-72.14400447 262.42467999 -72.6635523 263.78665306 -73.18359375 265.1484375 C-73.44897949 265.85323242 -73.71436523 266.55802734 -73.98779297 267.28417969 C-74.80734213 269.42403275 -75.6631855 271.54507982 -76.53515625 273.6640625 C-76.81190186 274.33872559 -77.08864746 275.01338867 -77.3737793 275.70849609 C-77.90762829 277.0068399 -78.44416085 278.30408421 -78.98364258 279.60009766 C-80.11857055 282.39417678 -80.8125 284.38699986 -80.8125 287.4375 C-50.34730543 304.74384196 -15.29160736 309.41672872 18.83496094 300.14892578 C33.95899299 295.57530297 49.30363372 287.08884884 59.1875 274.4375 C59.1875 273.7775 59.1875 273.1175 59.1875 272.4375 C59.8475 272.4375 60.5075 272.4375 61.1875 272.4375 C69.91013617 261.07829874 75.29068881 248.15436119 75.875 233.875 C75.91262451 232.99239502 75.95024902 232.10979004 75.98901367 231.20043945 C76.75100433 210.09310618 72.49157792 188.4613579 59.1875 171.4375 C58.5275 171.4375 57.8675 171.4375 57.1875 171.4375 C57.1875 170.7775 57.1875 170.1175 57.1875 169.4375 C43.49800757 156.22294915 26.15808507 148.11588734 9.15869141 140.13232422 C-33.99683385 119.84494067 -33.99683385 119.84494067 -41.8125 100.4375 C-43.60088402 95.17865049 -44.16758843 90.55332191 -44.125 85.0625 C-44.11762817 83.93714844 -44.11762817 83.93714844 -44.11010742 82.7890625 C-43.92698368 74.13435282 -41.33488742 67.90102241 -36.99609375 60.48046875 C-35.77180163 58.46551873 -35.77180163 58.46551873 -34.91015625 56.30078125 C-33.5291629 53.95653276 -32.27876855 53.50237483 -29.8125 52.4375 C-28.66338238 51.62965165 -27.5176808 50.8169277 -26.375 50 C-13.44641271 41.93752306 3.90942504 43.20088974 18.1875 46.4375 C26.6533359 48.414849 34.37298665 51.18611096 42.1262207 55.06323242 C45.47082324 56.72431941 48.48089025 57.91198822 52.1875 58.4375 C52.35354736 57.86829834 52.51959473 57.29909668 52.69067383 56.71264648 C53.45596591 54.09876125 54.2279315 51.48689132 55 48.875 C55.26103516 47.97974609 55.52207031 47.08449219 55.79101562 46.16210938 C57.30020488 41.07558262 59.04503688 36.2878857 61.1875 31.4375 C61.85590854 28.80764192 61.85590854 28.80764192 61.1875 26.4375 C54.1988737 18.72591235 41.99245513 16.21554742 32.1875 14.4375 C31.28604248 14.26903564 30.38458496 14.10057129 29.45581055 13.92700195 C20.54292861 12.38967983 11.76716656 11.99608953 2.75 12 C2.00859772 11.99926483 1.26719543 11.99852966 0.50332642 11.99777222 C-27.70745974 12.07091705 -49.50222059 19.76146639 -68.5234375 41.5 Z " fill="#FBFBFB" transform="translate(405.8125,517.5625)"/>
<path d="M0 0 C0.8786824 -0.00570007 1.75736481 -0.01140015 2.66267395 -0.01727295 C4.52437143 -0.02669692 6.38608541 -0.03324656 8.24780273 -0.03710938 C11.0281514 -0.04668935 13.80771912 -0.07768367 16.58789062 -0.109375 C43.31532843 -0.26845006 66.85532691 4.84552269 87.89453125 22.203125 C75.01264956 61.05515959 75.01264956 61.05515959 68.89453125 78.203125 C64.8751044 75.97496446 61.23710764 73.7633149 57.64453125 70.890625 C50.79074346 66.01005636 42.94081799 63.54866385 35.02246094 60.91943359 C33.33347698 60.35088392 31.66120457 59.73273221 29.99609375 59.09765625 C23.73545567 56.93986351 17.39305483 56.86932012 10.83203125 56.765625 C9.44794067 56.73190796 9.44794067 56.73190796 8.03588867 56.69750977 C0.39950625 56.72405571 -6.41708973 58.29440333 -12.5078125 63.09765625 C-13.01441406 63.73058594 -13.52101563 64.36351562 -14.04296875 65.015625 C-14.56761719 65.64082031 -15.09226562 66.26601562 -15.6328125 66.91015625 C-20.84923701 75.03228141 -20.91478929 82.90513556 -20.10546875 92.203125 C-18.15979599 101.0397221 -13.29418276 107.28403362 -5.9609375 112.39453125 C5.85858394 119.85364987 18.74273081 125.59554819 31.34375 131.58984375 C36.4002702 133.99757699 41.44296681 136.43077217 46.4609375 138.91796875 C47.54963135 139.45671631 48.6383252 139.99546387 49.76000977 140.55053711 C59.16728329 145.51025629 67.32840636 151.76164796 74.89453125 159.203125 C75.66667969 159.96238281 76.43882812 160.72164062 77.234375 161.50390625 C90.00160868 174.83857254 96.47872495 191.2732392 98.53515625 209.47265625 C98.73789014 212.16207178 98.73789014 212.16207178 99.89453125 214.203125 C101.12992196 238.15069875 97.69741564 261.08457097 81.76953125 280.078125 C77.75807783 284.48261352 73.59092078 288.53871678 68.89453125 292.203125 C67.71697266 293.15251953 67.71697266 293.15251953 66.515625 294.12109375 C39.95300898 314.58737167 4.78564102 319.78919326 -27.921875 315.70703125 C-31.72023182 315.03939554 -35.38520797 314.21700715 -39.10546875 313.203125 C-39.77465332 313.02088379 -40.44383789 312.83864258 -41.13330078 312.65087891 C-56.29163528 308.4341635 -71.66073797 302.04883338 -84.10546875 292.203125 C-83.56479971 285.52313256 -81.20586956 279.82805208 -78.703125 273.65234375 C-78.2653624 272.55718948 -77.82759979 271.46203522 -77.37657166 270.33369446 C-76.45309512 268.02850351 -75.52581528 265.72483299 -74.5949707 263.42260742 C-73.16736652 259.88913442 -71.75372567 256.35030856 -70.34179688 252.81054688 C-69.44222701 250.5699828 -68.54186393 248.32973699 -67.640625 246.08984375 C-67.21660904 245.02843674 -66.79259308 243.96702972 -66.35572815 242.87345886 C-65.95869186 241.89516617 -65.56165558 240.91687347 -65.15258789 239.90893555 C-64.80474747 239.04624557 -64.45690704 238.1835556 -64.098526 237.29472351 C-63.10546875 235.203125 -63.10546875 235.203125 -61.10546875 233.203125 C-59.86796875 234.14671875 -59.86796875 234.14671875 -58.60546875 235.109375 C-38.84585072 249.87257451 -16.18687668 259.70656205 8.89453125 257.203125 C18.12380065 255.56605665 25.79117044 251.31697601 31.89453125 244.203125 C37.49651382 235.95613855 38.02210142 226.87810079 36.89453125 217.203125 C34.4165817 207.08387054 29.10658449 200.37116615 20.35131836 194.94042969 C18.98302583 194.12020617 17.61045605 193.30708861 16.234375 192.5 C15.49128586 192.0639444 14.74819672 191.62788879 13.98258972 191.17861938 C5.79837656 186.45728959 -2.7045738 182.49881462 -11.29296875 178.578125 C-40.27874492 165.3033198 -40.27874492 165.3033198 -52.10546875 155.203125 C-52.915 154.53796875 -53.72453125 153.8728125 -54.55859375 153.1875 C-74.12484023 136.50217324 -80.96122745 114.91550597 -83.10546875 90.203125 C-84.30575258 73.1490923 -80.92803434 54.30325947 -71.10546875 40.203125 C-70.48414063 39.28660156 -69.8628125 38.37007812 -69.22265625 37.42578125 C-55.81191216 18.25630587 -35.46451931 5.35135997 -12.4909668 0.67041016 C-8.30777133 0.09302239 -4.21792634 0.02164604 0 0 Z M-38.10546875 24.203125 C-39.12769531 24.90695313 -40.14992188 25.61078125 -41.203125 26.3359375 C-55.25470371 36.33049287 -66.15565334 50.20075045 -69.70996094 67.42382812 C-71.90731183 82.86496553 -72.22110799 101.74326613 -66.10546875 116.203125 C-65.70279785 117.17693115 -65.70279785 117.17693115 -65.29199219 118.17041016 C-55.69631099 140.84193379 -36.7090587 153.4336093 -15.04296875 163.578125 C-14.03999756 164.05435303 -13.03702637 164.53058105 -12.00366211 165.02124023 C-7.48332834 167.16374077 -2.95376643 169.28137572 1.60546875 171.33984375 C18.75624509 179.11709183 37.46496727 188.34809475 45.7734375 206.1484375 C48.15992792 212.65100025 49.26169389 218.65181449 49.20703125 225.578125 C49.19965942 226.69175415 49.19965942 226.69175415 49.19213867 227.82788086 C48.96558482 238.48055895 45.61167578 246.67732712 38.70703125 254.765625 C23.77283686 267.70859347 9.14002539 270.29515121 -10.10546875 269.203125 C-24.63344477 267.70439311 -39.8403516 262.4470083 -51.98046875 254.265625 C-54.0193306 252.96111298 -54.0193306 252.96111298 -56.0546875 253.671875 C-59.13569602 255.97236136 -59.87619807 259.11810799 -61.04296875 262.640625 C-61.55130091 264.09493816 -62.0630423 265.548064 -62.578125 267 C-62.83094238 267.71478516 -63.08375977 268.42957031 -63.34423828 269.16601562 C-64.72115987 272.85076024 -66.4629482 276.35721133 -68.22265625 279.87109375 C-69.20466996 282.46517421 -69.27159136 284.45233008 -69.10546875 287.203125 C-39.46105013 304.26379041 -5.60815747 308.93749877 27.7421875 300.3671875 C41.68439982 296.57439234 54.35031053 290.22013469 64.89453125 280.203125 C66.1699186 278.08451699 66.1699186 278.08451699 66.89453125 276.203125 C67.55453125 276.203125 68.21453125 276.203125 68.89453125 276.203125 C77.73147763 266.53827734 85.38594408 253.36500143 86.89453125 240.203125 C87.01441406 239.15898437 87.13429687 238.11484375 87.2578125 237.0390625 C89.25756296 215.30683465 85.36432745 190.62282086 71.44921875 173.12890625 C58.56798305 158.16445816 40.86253129 148.47223349 22.86328125 140.91015625 C16.7211217 138.31306463 10.79900159 135.27192859 4.87353516 132.21923828 C2.89015519 131.20087813 0.89854121 130.20000896 -1.09375 129.19921875 C-12.22775785 123.53240798 -22.12188145 117.55324216 -28.10546875 106.203125 C-28.51796875 105.45160156 -28.93046875 104.70007813 -29.35546875 103.92578125 C-34.04764415 93.61277074 -34.03717358 78.75502269 -30.60546875 68.015625 C-26.29209207 58.51413091 -19.66180308 51.4240715 -10.10546875 47.203125 C3.63330421 42.05597787 18.02148738 43.44886342 31.89453125 47.203125 C33.51294922 47.63818359 33.51294922 47.63818359 35.1640625 48.08203125 C42.34643467 50.15771075 49.09058598 52.88126531 55.8984375 55.93359375 C58.27984092 56.942663 60.39734254 57.62364269 62.89453125 58.203125 C64.37455332 54.01036326 65.83469768 49.81136036 67.27685547 45.60546875 C67.77014898 44.17585811 68.26881408 42.74808918 68.77294922 41.32226562 C69.49698515 39.27154454 70.20139987 37.21496057 70.90234375 35.15625 C71.54647217 33.30241699 71.54647217 33.30241699 72.20361328 31.41113281 C73.15357347 28.31843539 73.15357347 28.31843539 72.11474609 25.8503418 C67.84323083 20.08405258 59.72865411 18.37312975 53.14453125 16.515625 C52.43103516 16.31332275 51.71753906 16.11102051 50.98242188 15.90258789 C38.9457889 12.69148169 26.92205195 11.76023245 14.51953125 11.765625 C13.78007263 11.76488983 13.04061401 11.76415466 12.27874756 11.76339722 C-5.48791945 11.80954627 -23.38305363 13.30897533 -38.10546875 24.203125 Z " fill="#FBFBFB" transform="translate(108.10546875,68.796875)"/>
<path d="M0 0 C20.46 0 40.92 0 62 0 C62 82.17 62 164.34 62 249 C104.57 249 147.14 249 191 249 C191 268.14 191 287.28 191 307 C127.97 307 64.94 307 0 307 C0 205.69 0 104.38 0 0 Z M13 12 C13 105.39 13 198.78 13 295 C67.78 295 122.56 295 179 295 C179 283.78 179 272.56 179 261 C136.76 260.67 94.52 260.34 51 260 C50.67 178.16 50.34 96.32 50 12 C37.79 12 25.58 12 13 12 Z " fill="#FAFAFA" transform="translate(769,73)"/>
<path d="M0 0 C20.46 0 40.92 0 62 0 C62 82.17 62 164.34 62 249 C104.57 249 147.14 249 191 249 C191 268.14 191 287.28 191 307 C127.97 307 64.94 307 0 307 C0 205.69 0 104.38 0 0 Z M13 12 C13 105.39 13 198.78 13 295 C67.78 295 122.56 295 179 295 C179 283.78 179 272.56 179 261 C136.76 260.67 94.52 260.34 51 260 C50.67 178.16 50.34 96.32 50 12 C37.79 12 25.58 12 13 12 Z " fill="#FAFAFA" transform="translate(568,73)"/>
<path d="M0 0 C20.46 0 40.92 0 62 0 C62 101.31 62 202.62 62 307 C41.54 307 21.08 307 0 307 C0 205.69 0 104.38 0 0 Z M12 12 C12 105.39 12 198.78 12 295 C24.54 295 37.08 295 50 295 C50 201.61 50 108.22 50 12 C37.46 12 24.92 12 12 12 Z " fill="#FBFBFB" transform="translate(30,522)"/>
<path d="M0 0 C20.46 0 40.92 0 62 0 C62 101.31 62 202.62 62 307 C41.54 307 21.08 307 0 307 C0 205.69 0 104.38 0 0 Z M12 12 C12 105.39 12 198.78 12 295 C24.54 295 37.08 295 50 295 C50 201.61 50 108.22 50 12 C37.46 12 24.92 12 12 12 Z " fill="#FBFBFB" transform="translate(465,73)"/>
</svg>
